<svg xmlns="http://www.w3.org/2000/svg" viewBox="269 357 76 80">
<style>.st0{fill:none;stroke:#c9a96e;stroke-width:1.3;stroke-linecap:round;stroke-linejoin:round;stroke-miterlimit:10;}.st1{fill:none;}</style>
<g>
 <g>
  <g id="XMLID_605_">
   <g>
    <path class="st0" d="M277.71,411.43c0.55,0.55,0.89,1.32,0.89,2.15c0,0.84-0.34,1.6-0.89,2.15l-0.04,0.04c-0.55,0.53-1.29,0.86-2.12,0.86c-0.84,0-1.6-0.35-2.15-0.9c-0.55-0.55-0.89-1.31-0.89-2.15c0-0.85,0.33-1.6,0.89-2.15c0.55-0.56,1.32-0.89,2.15-0.89c0.01,0,0.01,0,0.02,0c0.31,0,0.61,0.05,0.89,0.14c0.19,0.06,0.37,0.13,0.54,0.22c0.01,0,0.02,0.01,0.03,0.01c0.16,0.1,0.32,0.2,0.48,0.33C277.58,411.28,277.65,411.35,277.71,411.43z"/>
    <path class="st1" d="M340.83,371.4c0.87,0.87,1.41,2.08,1.41,3.4c0,1.33-0.55,2.54-1.41,3.41l-0.06,0.06c-0.66,0.65-1.51,1.1-2.46,1.28v-0.82c0-0.48-0.4-0.88-0.9-0.88c0.83,0,1.57-0.33,2.11-0.85l0.04-0.04c0.55-0.55,0.89-1.32,0.89-2.16c0-0.84-0.34-1.6-0.89-2.14c-0.56-0.56-1.31-0.89-2.15-0.89s-1.6,0.33-2.15,0.89c-0.2,0.2-0.37,0.42-0.51,0.67c0.02-0.04,0.04-0.08,0.06-0.13c0.19-0.45-0.04-0.97-0.49-1.15l-0.66-0.26c0.11-0.14,0.22-0.26,0.35-0.39c0.87-0.87,2.08-1.41,3.4-1.41C338.75,369.99,339.96,370.53,340.83,371.4z"/>
    <path class="st1" d="M340.83,410.17c0.87,0.88,1.41,2.08,1.41,3.41c0,1.34-0.55,2.53-1.41,3.41l-0.06,0.05c-0.87,0.85-2.05,1.37-3.35,1.37c-1.33,0-2.52-0.55-3.4-1.41c-0.21-0.21-0.41-0.45-0.57-0.69l0.74-0.32c0.45-0.19,0.65-0.71,0.45-1.17c0.16,0.35,0.37,0.66,0.63,0.93c0.54,0.55,1.32,0.9,2.15,0.9c0.83,0,1.57-0.33,2.11-0.86l0.04-0.04c0.55-0.55,0.89-1.31,0.89-2.15c0-0.84-0.34-1.6-0.89-2.15c-0.56-0.56-1.31-0.89-2.15-0.89c0.5,0,0.9-0.41,0.9-0.89v-0.81C339.3,409.03,340.16,409.51,340.83,410.17z"/>
    <path class="st0" d="M339.58,372.66c0.55,0.55,0.89,1.31,0.89,2.14c0,0.85-0.34,1.61-0.89,2.16l-0.04,0.04c-0.55,0.52-1.29,0.85-2.11,0.85c-0.02,0-0.05,0-0.07,0c-0.13-0.01-0.25-0.02-0.38-0.04c-0.01,0-0.02,0-0.03,0c-0.14-0.02-0.27-0.06-0.41-0.1c-0.28-0.08-0.54-0.21-0.77-0.36c-0.13-0.08-0.24-0.16-0.35-0.26c-0.11-0.1-0.21-0.2-0.31-0.31c-0.19-0.22-0.34-0.47-0.47-0.74c-0.16-0.38-0.25-0.8-0.25-1.24c0-0.54,0.14-1.04,0.38-1.47c0.14-0.25,0.31-0.48,0.51-0.67c0.56-0.56,1.32-0.89,2.15-0.89S339.02,372.1,339.58,372.66z"/>
    <path class="st0" d="M339.58,411.43c0.55,0.55,0.89,1.32,0.89,2.15c0,0.84-0.34,1.6-0.89,2.15l-0.04,0.04c-0.55,0.53-1.29,0.86-2.11,0.86c-0.84,0-1.61-0.35-2.15-0.9c-0.26-0.26-0.48-0.57-0.63-0.93c-0.02-0.05-0.04-0.1-0.06-0.16c-0.02-0.06-0.04-0.11-0.06-0.17c-0.03-0.1-0.06-0.2-0.08-0.29c-0.04-0.2-0.06-0.4-0.06-0.61c0-0.85,0.34-1.6,0.89-2.15c0.56-0.56,1.32-0.89,2.15-0.89S339.02,410.87,339.58,411.43z"/>
    <path class="st1" d="M338.32,408.84v0.81c0,0.48-0.4,0.89-0.9,0.89c-0.84,0-1.6,0.33-2.15,0.89c-0.55,0.55-0.89,1.31-0.89,2.15c0,0.21,0.02,0.41,0.05,0.6l0.01,0.02c0.02,0.1,0.05,0.19,0.08,0.29c0.02,0.06,0.03,0.11,0.06,0.17c0.02,0.06,0.04,0.11,0.06,0.16c0.21,0.46,0,0.97-0.45,1.17l-0.74,0.32c-0.33-0.49-0.57-1.03-0.71-1.62l-0.03-0.16c-0.03-0.16-0.06-0.3-0.08-0.46c-0.02-0.16-0.03-0.32-0.03-0.49c0-1.34,0.54-2.53,1.42-3.41c0.13-0.13,0.25-0.24,0.39-0.35c0.1-0.08,0.21-0.16,0.32-0.23c0.33-0.22,0.7-0.42,1.09-0.54c0.11-0.04,0.21-0.08,0.32-0.11c0.03-0.01,0.06-0.02,0.1-0.03c0.1-0.02,0.19-0.04,0.29-0.06c0.28-0.06,0.58-0.09,0.89-0.09C337.74,408.75,338.03,408.78,338.32,408.84z"/>
    <path class="st1" d="M338.32,379.55v29.29c-0.29-0.06-0.58-0.09-0.9-0.09c-0.3,0-0.6,0.03-0.89,0.09v-29.3c0.28,0.06,0.58,0.09,0.89,0.09C337.73,379.63,338.03,379.6,338.32,379.55z"/>
    <path class="st1" d="M338.32,378.73v0.82c-0.29,0.05-0.59,0.08-0.9,0.08c-0.3,0-0.6-0.03-0.89-0.09c-0.14-0.02-0.26-0.05-0.39-0.09c-0.48-0.13-0.94-0.33-1.35-0.6c-0.1-0.07-0.2-0.14-0.29-0.21c-0.16-0.12-0.3-0.24-0.44-0.38c-0.02-0.02-0.03-0.03-0.05-0.05c-0.21-0.21-0.4-0.44-0.57-0.68c-0.33-0.49-0.58-1.03-0.72-1.63l0.74-0.32c0.46-0.19,0.97,0.01,1.17,0.46c0.13,0.27,0.28,0.52,0.47,0.74c0.05,0.06,0.11,0.13,0.17,0.18c0.05,0.05,0.1,0.09,0.14,0.13c0.32,0.29,0.7,0.51,1.12,0.62c0.13,0.05,0.27,0.08,0.41,0.1c0.01,0,0.02,0,0.03,0c0.13,0.03,0.25,0.04,0.38,0.04c0.02,0,0.05,0,0.07,0C337.92,377.85,338.32,378.25,338.32,378.73z"/>
    <path class="st1" d="M337.53,429.96v1.85h-31.04v-0.05c1.29,0,2.47-0.52,3.35-1.36l0.06-0.05c0.13-0.13,0.23-0.25,0.35-0.39H337.53z"/>
    <path class="st0" d="M336.54,379.54v29.3c-0.11,0.01-0.2,0.04-0.29,0.06c-0.04,0.01-0.07,0.02-0.1,0.03c-0.11,0.03-0.21,0.06-0.32,0.11c-0.39,0.13-0.76,0.32-1.09,0.54c-0.11,0.07-0.22,0.15-0.32,0.23c-0.14,0.11-0.26,0.22-0.39,0.35c-0.88,0.88-1.42,2.08-1.42,3.41c0,0.17,0.01,0.33,0.03,0.49c0.02,0.21,0.05,0.42,0.11,0.61l-22.12,9.78c-0.08-0.15-0.17-0.28-0.28-0.42c-0.09-0.14-0.2-0.26-0.32-0.38c-0.03-0.05-0.07-0.09-0.11-0.13c-0.08-0.08-0.17-0.16-0.25-0.22c-0.13-0.12-0.25-0.21-0.39-0.3c-0.14-0.11-0.28-0.2-0.43-0.27c-0.11-0.06-0.22-0.12-0.33-0.17c-0.34-0.17-0.71-0.28-1.1-0.35v-33.17l26.05-11.51c0.17,0.24,0.36,0.47,0.57,0.68c0.01,0.02,0.03,0.04,0.05,0.05c0.14,0.14,0.28,0.26,0.44,0.38c0.1,0.07,0.2,0.14,0.29,0.21c0.41,0.27,0.87,0.48,1.35,0.6C336.27,379.49,336.4,379.52,336.54,379.54z"/>
    <path class="st1" d="M334.33,372.05c0.45,0.18,0.67,0.7,0.49,1.15c-0.02,0.05-0.04,0.09-0.06,0.13c-0.21,0.37-0.67,0.54-1.09,0.37l-0.85-0.34c0.19-0.58,0.48-1.11,0.85-1.57L334.33,372.05z"/>
    <path class="st1" d="M333.45,416.3l-22.22,9.81c-0.1-0.59-0.3-1.16-0.61-1.66l22.12-9.78C332.87,415.26,333.12,415.81,333.45,416.3z"/>
    <path class="st1" d="M333.45,377.53l-26.05,11.51v-0.58c0-0.33-0.2-0.65-0.54-0.81l-0.36-0.17l26.23-11.59C332.86,376.5,333.12,377.04,333.45,377.53z"/>
    <path class="st0" d="M311.48,364.81l21.34,8.55c-0.14,0.45-0.22,0.94-0.22,1.44c0,0.38,0.05,0.75,0.13,1.1l-26.23,11.59l-26.4-11.65c0.17-0.49,0.27-1.02,0.27-1.58c0-0.29-0.03-0.58-0.08-0.85l23.01-8.68c0.08,0.15,0.18,0.28,0.27,0.41c0,0.01,0.02,0.02,0.02,0.02c0.1,0.14,0.2,0.26,0.32,0.38c0.03,0.04,0.06,0.07,0.1,0.11h0.01c0.22,0.22,0.45,0.42,0.7,0.58c0.13,0.09,0.26,0.17,0.4,0.24c0.13,0.07,0.27,0.14,0.42,0.2c0.12,0.05,0.24,0.1,0.35,0.14c0.07,0.02,0.14,0.04,0.21,0.06c0.11,0.03,0.22,0.06,0.32,0.08c0.02,0.01,0.04,0.01,0.07,0.02c0.14,0.03,0.29,0.05,0.44,0.06c0.17,0.02,0.32,0.03,0.49,0.03c0.15,0,0.28-0.01,0.43-0.02c0.67-0.06,1.31-0.25,1.87-0.57c0.12-0.06,0.23-0.13,0.34-0.2c0.25-0.17,0.49-0.36,0.71-0.58l0.06-0.04c0.02-0.02,0.03-0.03,0.04-0.05C311.1,365.36,311.31,365.1,311.48,364.81z"/>
    <path class="st1" d="M312.15,363.17l21.53,8.62c-0.37,0.46-0.66,0.99-0.85,1.57l-21.34-8.55C311.8,364.32,312.03,363.76,312.15,363.17z"/>
    <rect x="287.18" y="433.53" class="st1" width="38.64" height="1.85"/>
    <path class="st1" d="M312.23,362.23c0,0.32-0.03,0.63-0.09,0.93l-0.75-0.3c-0.46-0.17-0.96,0.05-1.15,0.5c-0.01,0.02-0.02,0.04-0.03,0.06c0.15-0.36,0.24-0.77,0.24-1.19c0-0.84-0.34-1.61-0.9-2.14c-0.55-0.55-1.31-0.9-2.15-0.9c-0.85,0-1.61,0.34-2.15,0.9c-0.56,0.54-0.89,1.31-0.89,2.14c0,0.41,0.08,0.8,0.22,1.15c-0.02-0.02-0.03-0.05-0.04-0.08c-0.17-0.46-0.68-0.69-1.13-0.52l-0.76,0.28c-0.05-0.27-0.08-0.56-0.08-0.84c0-1.33,0.55-2.53,1.41-3.41c0.87-0.86,2.07-1.4,3.41-1.4c1.33,0,2.53,0.54,3.41,1.4C311.7,359.69,312.23,360.91,312.23,362.23z"/>
    <path class="st1" d="M311.39,362.87l0.75,0.3c-0.12,0.6-0.34,1.15-0.66,1.65c-0.17,0.27-0.39,0.54-0.61,0.78c-0.03,0.03-0.07,0.06-0.1,0.09c-0.22,0.21-0.46,0.4-0.71,0.58c-0.11,0.07-0.22,0.14-0.34,0.2c-0.56,0.31-1.2,0.51-1.87,0.57c-0.14,0.01-0.28,0.02-0.43,0.02c-0.16,0-0.33-0.01-0.49-0.03c-0.16-0.01-0.3-0.03-0.44-0.06c-0.03-0.01-0.05-0.01-0.07-0.02c-0.11-0.02-0.22-0.05-0.32-0.08c-0.07-0.02-0.14-0.04-0.21-0.06c-0.11-0.04-0.23-0.09-0.35-0.14c-0.14-0.06-0.28-0.13-0.42-0.2c-0.14-0.08-0.27-0.16-0.4-0.24c-0.25-0.17-0.49-0.36-0.7-0.58c-0.04-0.03-0.08-0.07-0.1-0.11c-0.12-0.12-0.23-0.24-0.32-0.38c0,0-0.02-0.01-0.02-0.02c-0.1-0.12-0.19-0.26-0.27-0.41c-0.31-0.5-0.54-1.06-0.63-1.66l0.76-0.28c0.45-0.17,0.96,0.06,1.13,0.52c0.01,0.03,0.02,0.06,0.04,0.08c0.04,0.11,0.09,0.2,0.14,0.3c0.02,0.04,0.05,0.09,0.07,0.13c0.06,0.09,0.11,0.17,0.17,0.24c0.09,0.12,0.19,0.22,0.28,0.32c0.09,0.09,0.18,0.17,0.29,0.25c0.05,0.04,0.09,0.08,0.14,0.11c0.01,0.01,0.02,0.01,0.03,0.01c0.03,0.03,0.07,0.05,0.11,0.07c0.06,0.04,0.12,0.08,0.18,0.11c0.1,0.06,0.21,0.1,0.31,0.14c0.07,0.04,0.13,0.06,0.2,0.08c0.03,0.01,0.06,0.02,0.09,0.02c0.11,0.04,0.21,0.06,0.32,0.08c0.02,0,0.04,0,0.06,0c0.13,0.03,0.29,0.04,0.44,0.04c0.11,0,0.21-0.01,0.3-0.02c0.09,0,0.18-0.02,0.26-0.04c0.23-0.04,0.45-0.11,0.65-0.2c0.06-0.01,0.12-0.04,0.17-0.08c0.02-0.01,0.04-0.01,0.05-0.02c0.1-0.04,0.19-0.1,0.27-0.16c0.05-0.04,0.1-0.07,0.15-0.12c0.09-0.07,0.17-0.14,0.25-0.22h0.01l0.02-0.04l0.01-0.01c0.13-0.12,0.24-0.24,0.32-0.38c0.14-0.18,0.24-0.37,0.33-0.57c0.01-0.02,0.02-0.04,0.03-0.06C310.43,362.91,310.94,362.7,311.39,362.87z"/>
    <path class="st1" d="M311.23,426.11c0.06,0.27,0.08,0.54,0.08,0.83c0,1.15-0.4,2.19-1.05,3.02h-3.38c0.67-0.08,1.28-0.38,1.73-0.83l0.04-0.04c0.55-0.56,0.89-1.32,0.89-2.15c0-0.36-0.07-0.71-0.17-1.03c0.17,0.47,0.67,0.69,1.13,0.54L311.23,426.11z"/>
    <path class="st1" d="M311.23,426.11l-0.74,0.33c-0.46,0.16-0.96-0.07-1.13-0.54c-0.01-0.02-0.02-0.05-0.03-0.07c-0.04-0.09-0.07-0.18-0.12-0.25c-0.03-0.06-0.06-0.13-0.1-0.19c-0.06-0.1-0.12-0.19-0.19-0.28c-0.01-0.02-0.03-0.03-0.04-0.05c-0.07-0.1-0.16-0.19-0.24-0.28c-0.04-0.04-0.09-0.08-0.13-0.12c-0.03-0.03-0.07-0.06-0.1-0.08c-0.06-0.05-0.12-0.1-0.19-0.15c-0.11-0.08-0.21-0.15-0.33-0.21c-0.06-0.03-0.11-0.05-0.17-0.08c-0.11-0.05-0.22-0.1-0.34-0.13c-0.11-0.04-0.21-0.06-0.32-0.08c-0.17-0.04-0.37-0.06-0.56-0.06c0.49-0.01,0.88-0.41,0.88-0.89v-0.8c0.39,0.07,0.76,0.19,1.1,0.35c0.12,0.05,0.23,0.11,0.33,0.17c0.14,0.08,0.29,0.18,0.43,0.27c0.14,0.1,0.27,0.2,0.39,0.3c0.13,0.12,0.25,0.23,0.36,0.35c0.12,0.12,0.22,0.25,0.32,0.38c0.11,0.14,0.19,0.27,0.28,0.42C310.93,424.95,311.13,425.52,311.23,426.11z"/>
    <path class="st0" d="M310.46,362.23c0,0.42-0.09,0.83-0.24,1.19c-0.09,0.2-0.2,0.4-0.33,0.57c-0.09,0.14-0.2,0.26-0.32,0.38l-0.01,0.01c0.01,0.01-0.01,0.03-0.03,0.04c-0.08,0.09-0.17,0.16-0.25,0.22c-0.13,0.1-0.27,0.19-0.42,0.27c-0.01,0.01-0.03,0.01-0.05,0.02c-0.05,0.03-0.11,0.06-0.17,0.08c-0.21,0.09-0.42,0.16-0.65,0.2c-0.09,0.02-0.17,0.04-0.26,0.04c-0.1,0.01-0.19,0.02-0.3,0.02c-0.15,0-0.29-0.01-0.44-0.04c-0.02,0-0.04,0-0.06,0c-0.11-0.02-0.22-0.04-0.32-0.08c-0.03,0-0.06-0.01-0.09-0.02c-0.08-0.02-0.14-0.05-0.2-0.08c-0.11-0.04-0.21-0.08-0.31-0.14c-0.06-0.03-0.12-0.06-0.18-0.11c-0.04-0.02-0.08-0.04-0.11-0.07c-0.06-0.03-0.12-0.07-0.17-0.12c-0.11-0.08-0.2-0.17-0.29-0.25c-0.1-0.1-0.19-0.21-0.28-0.32c-0.06-0.08-0.11-0.16-0.17-0.24c-0.02-0.04-0.05-0.08-0.07-0.13c-0.05-0.1-0.1-0.19-0.14-0.3c-0.14-0.35-0.22-0.74-0.22-1.15c0-0.84,0.33-1.61,0.89-2.14c0.55-0.55,1.3-0.9,2.15-0.9c0.84,0,1.6,0.34,2.15,0.9C310.12,360.62,310.46,361.39,310.46,362.23z"/>
    <path class="st1" d="M306.87,429.96h3.38c-0.12,0.14-0.22,0.26-0.35,0.39l-0.06,0.05c-0.88,0.85-2.06,1.36-3.35,1.36c-1.33,0-2.53-0.55-3.4-1.41c-0.13-0.13-0.24-0.25-0.35-0.39h3.36c0.13,0.02,0.25,0.03,0.39,0.03C306.62,429.99,306.75,429.98,306.87,429.96z"/>
    <path class="st0" d="M309.36,425.91c0.11,0.32,0.17,0.67,0.17,1.03c0,0.84-0.34,1.6-0.89,2.15l-0.04,0.04c-0.46,0.45-1.06,0.75-1.73,0.83h-0.77c-0.68-0.09-1.3-0.41-1.76-0.87c-0.55-0.56-0.9-1.32-0.9-2.15c0-0.31,0.05-0.6,0.13-0.88c0.03-0.05,0.06-0.1,0.08-0.16c0.1-0.29,0.25-0.58,0.44-0.82c0.1-0.12,0.2-0.24,0.31-0.35c0.11-0.11,0.22-0.2,0.35-0.29h0.01c0.12-0.09,0.24-0.16,0.37-0.23c0.01,0,0.02-0.01,0.03-0.02c0.13-0.06,0.26-0.11,0.39-0.16c0.02,0,0.03-0.01,0.04-0.01c0.13-0.04,0.26-0.08,0.41-0.1c0.02,0,0.04-0.01,0.06,0c0.13-0.03,0.26-0.04,0.4-0.04c0.01,0,0.02,0,0.03,0h0.02c0.01,0,0.01,0,0.02,0c0.19,0,0.38,0.02,0.56,0.06c0.11,0.02,0.21,0.04,0.32,0.08c0.12,0.03,0.24,0.08,0.34,0.13c0.06,0.03,0.11,0.05,0.17,0.08c0.12,0.06,0.22,0.13,0.33,0.21c0.07,0.05,0.12,0.1,0.19,0.15c0.04,0.02,0.07,0.05,0.1,0.08c0.04,0.04,0.09,0.08,0.13,0.12c0.09,0.09,0.17,0.18,0.24,0.28c0.01,0.02,0.03,0.03,0.04,0.05c0.07,0.09,0.13,0.18,0.19,0.28c0.04,0.06,0.07,0.13,0.1,0.19c0.05,0.08,0.09,0.17,0.12,0.25C309.34,425.86,309.35,425.89,309.36,425.91z"/>
    <path class="st1" d="M306.5,387.49l-0.37,0.17c-0.33,0.16-0.53,0.48-0.53,0.81v0.59l-26.06-11.52c-0.36,0.53-0.82,0.98-1.35,1.32c-0.52,0.34-1.11,0.58-1.73,0.69v29.3c-0.29-0.06-0.6-0.09-0.91-0.09c-0.29,0-0.58,0.03-0.86,0.08v-29.84c0.28,0.05,0.56,0.08,0.86,0.08c1.3,0,2.48-0.53,3.35-1.36l0.06-0.05c0.51-0.51,0.91-1.13,1.14-1.82L306.5,387.49z"/>
    <path class="st1" d="M306.49,431.76v0.05h-31.05v-1.85h27.3c0.11,0.14,0.22,0.26,0.35,0.39C303.96,431.22,305.17,431.76,306.49,431.76z"/>
    <path class="st1" d="M306.45,423.9c-0.13,0-0.27,0.01-0.4,0.04c-0.02-0.01-0.04,0-0.06,0c-0.14,0.02-0.27,0.06-0.41,0.1c-0.01,0-0.02,0.01-0.04,0.01c-0.14,0.04-0.26,0.1-0.39,0.16c-0.01,0.01-0.02,0.02-0.03,0.02c-0.13,0.06-0.26,0.14-0.37,0.23h-0.01c-0.13,0.09-0.24,0.17-0.35,0.29c-0.02,0.01-0.04,0.03-0.06,0.05c-0.1,0.1-0.18,0.19-0.25,0.3c-0.23,0.29-0.41,0.62-0.52,0.98c-0.21,0.36-0.66,0.52-1.06,0.38l-0.76-0.33c0.1-0.59,0.31-1.16,0.62-1.66h0.01c0.18-0.29,0.38-0.56,0.6-0.8c0.23-0.24,0.49-0.47,0.76-0.65c0.27-0.2,0.57-0.36,0.88-0.5c0,0,0,0,0.01,0c0.15-0.07,0.29-0.13,0.45-0.17c0.17-0.06,0.32-0.1,0.49-0.13c0.01,0,0.03,0,0.04,0v0.8C305.6,423.49,305.99,423.88,306.45,423.9z"/>
    <path class="st1" d="M306.1,429.96h-3.36c-0.67-0.83-1.07-1.88-1.07-3.02c0-0.28,0.03-0.55,0.08-0.83l0.76,0.33c0.4,0.14,0.85-0.02,1.06-0.38c-0.08,0.27-0.13,0.56-0.13,0.88c0,0.84,0.34,1.6,0.9,2.15C304.8,429.55,305.42,429.87,306.1,429.96z"/>
    <path class="st0" d="M305.6,389.05v33.15c-0.01,0-0.03,0.01-0.04,0.01c-0.17,0.03-0.32,0.07-0.49,0.13c-0.15,0.04-0.3,0.1-0.45,0.17c-0.01,0-0.01,0-0.01,0c-0.58,0.23-1.09,0.58-1.53,1.02c-0.04,0.04-0.08,0.08-0.11,0.13c-0.24,0.24-0.45,0.51-0.61,0.8l-22.1-9.78l0.03-0.16c0.06-0.31,0.1-0.62,0.1-0.94c0-1.34-0.55-2.53-1.41-3.41c-0.44-0.44-0.96-0.79-1.55-1.03c-0.16-0.07-0.32-0.13-0.49-0.18c-0.11-0.04-0.22-0.07-0.34-0.09c-0.05-0.01-0.09-0.02-0.14-0.03v-29.3c0.62-0.11,1.22-0.35,1.73-0.69c0.53-0.34,0.98-0.79,1.35-1.32L305.6,389.05z"/>
    <path class="st1" d="M303.31,364.73l-23.01,8.68c-0.1-0.6-0.32-1.17-0.62-1.67l23-8.67C302.77,363.66,302.99,364.23,303.31,364.73z"/>
    <path class="st1" d="M280.27,414.68l22.1,9.78c-0.31,0.5-0.53,1.06-0.62,1.66l-22.2-9.81c0.53-0.78,0.83-1.71,0.83-2.72c0-1.34-0.54-2.53-1.41-3.41c-0.44-0.43-0.96-0.79-1.53-1.03c0.59,0.24,1.11,0.59,1.55,1.03c0.87,0.88,1.41,2.08,1.41,3.41c0,0.32-0.04,0.63-0.1,0.94L280.27,414.68z"/>
    <path class="st1" d="M280.3,373.41l-0.74,0.28c-0.47,0.17-0.97-0.06-1.15-0.53c-0.17-0.45,0.06-0.96,0.53-1.14l0.74-0.28C279.98,372.24,280.2,372.81,280.3,373.41z"/>
    <path class="st1" d="M279.53,375.58l0.57,0.25c-0.23,0.69-0.63,1.32-1.14,1.82l-0.06,0.05c-0.87,0.84-2.05,1.36-3.35,1.36c-0.29,0-0.58-0.03-0.86-0.08v-0.26c0-0.48,0.39-0.88,0.88-0.88h0.03c0.6-0.01,1.16-0.19,1.64-0.5c0.49-0.32,0.89-0.77,1.12-1.32C278.56,375.59,279.08,375.39,279.53,375.58z"/>
    <path class="st1" d="M280.38,413.58c0,1.01-0.3,1.94-0.83,2.72l-0.73-0.32c-0.45-0.19-0.65-0.71-0.46-1.17l0.01-0.02c0.08-0.19,0.14-0.38,0.19-0.58l0.01-0.04c0.03-0.19,0.06-0.38,0.06-0.6c0-0.85-0.34-1.6-0.9-2.15h-0.01c-0.07-0.08-0.13-0.15-0.21-0.2c-0.14-0.14-0.3-0.23-0.48-0.33c-0.01,0-0.02-0.01-0.03-0.01c-0.17-0.1-0.34-0.17-0.54-0.22c-0.27-0.09-0.57-0.14-0.89-0.14c-0.01,0-0.01,0-0.02,0c-0.48-0.01-0.86-0.42-0.86-0.89v-0.82c0.28-0.05,0.56-0.08,0.86-0.08c0.31,0,0.62,0.03,0.91,0.09c0.05,0.01,0.09,0.02,0.14,0.03c0.12,0.03,0.23,0.06,0.34,0.09c0.17,0.05,0.33,0.11,0.49,0.18c0.58,0.24,1.09,0.6,1.53,1.03C279.84,411.04,280.38,412.24,280.38,413.58z"/>
    <path class="st1" d="M278.82,415.98l0.73,0.32c-0.18,0.24-0.37,0.48-0.58,0.69l-0.06,0.05c-0.87,0.85-2.05,1.37-3.35,1.37c-1.32,0-2.52-0.55-3.39-1.41c-0.89-0.88-1.42-2.09-1.42-3.41c0-1.34,0.54-2.53,1.42-3.41c0.67-0.67,1.55-1.16,2.53-1.34v0.82c0,0.47,0.38,0.88,0.86,0.89c-0.83,0-1.6,0.33-2.15,0.89c-0.55,0.55-0.89,1.31-0.89,2.15c0,0.84,0.33,1.6,0.89,2.15c0.55,0.55,1.3,0.9,2.15,0.9c0.83,0,1.58-0.33,2.12-0.86l0.04-0.04c0.55-0.55,0.89-1.31,0.89-2.15c0-0.84-0.34-1.6-0.89-2.15h0.01c0.55,0.55,0.9,1.31,0.9,2.15c0,0.21-0.03,0.41-0.06,0.6l-0.01,0.04c-0.04,0.19-0.11,0.39-0.19,0.58l-0.01,0.02C278.16,415.26,278.37,415.78,278.82,415.98z"/>
    <path class="st0" d="M278.41,373.17c0.13,0.33,0.2,0.7,0.2,1.09c0,0.83-0.34,1.59-0.89,2.14l-0.04,0.04c-0.55,0.53-1.29,0.85-2.12,0.85c-0.84,0-1.6-0.33-2.15-0.89c-0.55-0.55-0.89-1.31-0.89-2.14c0-0.86,0.33-1.61,0.89-2.16c0.55-0.54,1.32-0.89,2.15-0.89c0.85,0,1.61,0.34,2.16,0.89C278.01,372.4,278.25,372.76,278.41,373.17z"/>
    <path class="st1" d="M280.3,373.41c0.05,0.27,0.08,0.55,0.08,0.85c0,0.56-0.1,1.09-0.27,1.58l-0.57-0.25c-0.45-0.19-0.97,0.01-1.17,0.46c-0.23,0.55-0.63,0.99-1.12,1.32c-0.48,0.31-1.03,0.49-1.64,0.5h-0.03c-0.49,0-0.88,0.4-0.88,0.88v0.26c-0.97-0.17-1.86-0.66-2.53-1.34c-0.89-0.88-1.42-2.08-1.42-3.4c0-1.34,0.54-2.54,1.42-3.41c0.86-0.88,2.06-1.42,3.39-1.42c1.33,0,2.54,0.55,3.41,1.42c0.27,0.27,0.51,0.57,0.71,0.9l-0.74,0.28c-0.47,0.18-0.7,0.69-0.53,1.14c-0.15-0.41-0.4-0.77-0.69-1.07c-0.55-0.54-1.31-0.89-2.16-0.89c-0.83,0-1.6,0.34-2.15,0.89c-0.55,0.56-0.89,1.31-0.89,2.16c0,0.83,0.33,1.59,0.89,2.14c0.55,0.56,1.3,0.89,2.15,0.89c0.83,0,1.58-0.32,2.12-0.85l0.04-0.04c0.55-0.55,0.89-1.31,0.89-2.14c0-0.39-0.07-0.76-0.2-1.09c0.18,0.47,0.68,0.69,1.15,0.53L280.3,373.41z"/>
    <path class="st1" d="M307.4,422.21v0.8c0,0.48-0.39,0.88-0.88,0.89c-0.01,0-0.01,0-0.02,0h-0.02c-0.01,0-0.02,0-0.03,0c-0.47-0.02-0.85-0.41-0.85-0.89v-0.8c0.29-0.06,0.59-0.09,0.89-0.09C306.81,422.12,307.11,422.15,307.4,422.21z"/>
    <path class="st1" d="M307.4,388.46v0.58l-0.02,0.01v33.15c0.01,0,0.01,0,0.02,0.01c-0.29-0.06-0.59-0.09-0.9-0.09c-0.3,0-0.6,0.03-0.89,0.09v-0.01h0.01v-33.15h-0.01v-0.59c0-0.33,0.2-0.65,0.53-0.81l0.37-0.17l0.36,0.17C307.19,387.81,307.4,388.13,307.4,388.46z"/>
   </g>
  </g>
 </g>
</g>
</svg>
