<svg xmlns="http://www.w3.org/2000/svg" viewBox="271 354 72 84">
<style>.st0{fill:#c9a96e;}</style>
<g>
 <g>
  <g>
   <path class="st0" d="M339.28,427.16h-9.32c-0.36,0-0.65-0.29-0.65-0.65s0.29-0.65,0.65-0.65h8.67v-45.42h-54.87v8.16c0,0.36-0.29,0.65-0.65,0.65s-0.65-0.29-0.65-0.65v-8.81c0-0.36,0.29-0.65,0.65-0.65h56.17c0.36,0,0.65,0.29,0.65,0.65v46.72C339.93,426.87,339.64,427.16,339.28,427.16z"/>
   <path class="st0" d="M329.96,435.98h-56.17c-0.36,0-0.65-0.29-0.65-0.65V388.6c0-0.36,0.29-0.65,0.65-0.65h56.17c0.36,0,0.65,0.29,0.65,0.65v46.73C330.61,435.69,330.32,435.98,329.96,435.98z M274.44,434.68h54.87v-45.43h-54.87V434.68z"/>
   <path class="st0" d="M329.96,419.83c-0.14,0-0.27-0.04-0.39-0.13l-13.27-9.89l-10.3,8.44c-0.28,0.23-0.69,0.19-0.91-0.09c-0.23-0.28-0.19-0.69,0.09-0.92l10.7-8.76c0.23-0.19,0.56-0.2,0.8-0.02l13.67,10.19c0.29,0.21,0.35,0.62,0.13,0.91C330.35,419.73,330.16,419.83,329.96,419.83z"/>
   <path class="st0" d="M273.79,427.26c-0.19,0-0.37-0.08-0.5-0.24c-0.23-0.28-0.19-0.69,0.09-0.91l21-17.38c0.24-0.2,0.58-0.2,0.82-0.01l18.14,14.28c0.28,0.22,0.33,0.63,0.11,0.91c-0.22,0.28-0.63,0.33-0.91,0.11l-17.73-13.96l-20.6,17.04C274.08,427.21,273.94,427.26,273.79,427.26z"/>
   <path class="st0" d="M307.96,406.51c-2.69,0-4.88-2.19-4.88-4.87c0-2.69,2.19-4.87,4.88-4.87c2.69,0,4.87,2.19,4.87,4.87C312.83,404.33,310.65,406.51,307.96,406.51z M307.96,398.07c-1.97,0-3.58,1.6-3.58,3.57c0,1.97,1.6,3.57,3.58,3.57c1.97,0,3.57-1.6,3.57-3.57C311.53,399.67,309.93,398.07,307.96,398.07z"/>
   <path class="st0" d="M331.2,380.43c-0.17,0-0.33-0.06-0.46-0.19l-17.91-17.91c-0.25-0.25-0.25-0.67,0-0.92s0.67-0.25,0.92,0l17.91,17.91c0.25,0.25,0.25,0.67,0,0.92C331.53,380.36,331.37,380.43,331.2,380.43z M291.74,380.43c-0.17,0-0.33-0.06-0.46-0.19c-0.25-0.25-0.25-0.67,0-0.92l17.91-17.91c0.25-0.25,0.67-0.25,0.92,0c0.25,0.25,0.25,0.67,0,0.92l-17.91,17.91C292.07,380.36,291.91,380.43,291.74,380.43z"/>
   <path class="st0" d="M311.47,363.26c-1.78,0-3.23-1.45-3.23-3.22c0-1.78,1.45-3.22,3.23-3.22c1.78,0,3.23,1.45,3.23,3.22C314.7,361.82,313.25,363.26,311.47,363.26z M311.47,358.12c-1.06,0-1.93,0.86-1.93,1.92c0,1.06,0.86,1.92,1.93,1.92c1.06,0,1.93-0.86,1.93-1.92C313.4,358.98,312.54,358.12,311.47,358.12z"/>
  </g>
 </g>
</g>
</svg>
